<svg xmlns="http://www.w3.org/2000/svg" fill="none" viewBox="0 0 29 29" height="29" width="29">
<path fill="white" d="M7.50228 7.58325C7.50228 5.65026 9.06928 4.08325 11.0023 4.08325H22.9606C24.8936 4.08325 26.4606 5.65026 26.4606 7.58325V15.1666C26.4606 17.0996 24.8936 18.6666 22.9606 18.6666H21.7939V19.8333C21.7939 21.7662 20.2269 23.3333 18.2939 23.3333H13.0546L8.06886 26.1031C7.70751 26.3039 7.2669 26.2984 6.91063 26.0888C6.55436 25.8791 6.33561 25.4966 6.33561 25.0833V23.3333H6.04395C4.11095 23.3333 2.54395 21.7662 2.54395 19.8333V12.2499C2.54395 10.3169 4.11095 8.74992 6.04395 8.74992H7.50228V7.58325ZM6.04395 11.0833C5.39961 11.0833 4.87728 11.6056 4.87728 12.2499V19.8333C4.87728 20.4776 5.39961 20.9999 6.04395 20.9999H7.50228C8.14661 20.9999 8.66895 21.5223 8.66895 22.1666V23.1005L12.1857 21.1467C12.359 21.0504 12.554 20.9999 12.7523 20.9999H18.2939C18.9383 20.9999 19.4606 20.4776 19.4606 19.8333V17.5779C19.4589 17.5521 19.458 17.5261 19.458 17.4999C19.458 17.4737 19.4589 17.4477 19.4606 17.422V12.2499C19.4606 11.6056 18.9383 11.0833 18.2939 11.0833H6.04395ZM21.7939 16.3333V12.2499C21.7939 10.3169 20.2269 8.74992 18.2939 8.74992H9.83561V7.58325C9.83561 6.93892 10.3579 6.41659 11.0023 6.41659H22.9606C23.6049 6.41659 24.1273 6.93892 24.1273 7.58325V15.1666C24.1273 15.8109 23.6049 16.3333 22.9606 16.3333H21.7939Z" clip-rule="evenodd" fill-rule="evenodd"></path>
</svg>
